<svg xmlns="http://www.w3.org/2000/svg" xmlns:xlink="http://www.w3.org/1999/xlink" version="1.0" id="Layer_1" x="0px" y="0px" style="enable-background:new 0 0 595.28 841.89;" xml:space="preserve" viewBox="181 294.38 234.38 210.91">
<style type="text/css">
	.st0{display:none;}
	.st1{fill:#FFCC00;}
	.st2{fill:#3C3C3B;}
	.st3{fill:#FFFFFF;}
</style>
<g class="st0">
</g>
<g>
	<path class="st1" d="M260.3,431.56l-43.37,1.94l63-10.31l-49.05-28.47L288.37,418l-15.94-31.97l22.54,29.37l3.08-64.37l3.41,64.37   l23.11-29.38l-16.51,31.92l57.49-23.23l-49.05,28.47l62.6,10.6l-41.8-2c19.58,3.55,37.76,9.8,53.67,18.35   c8.17-14.95,12.9-32.05,12.9-50.29c0-58.24-47.21-105.46-105.45-105.46c-58.24,0-105.46,47.21-105.46,105.46   c0,18.17,4.69,35.2,12.79,50.12C221.9,441.31,240.39,435.05,260.3,431.56z"/>
</g>
<path class="st2" d="M208.37,454.5c6.84-3.64,14.17-6.88,21.93-9.65c0.14-0.05,0.27-0.1,0.41-0.15c2.6-0.92,5.24-1.8,7.92-2.61  c0.01,0,0.02-0.01,0.03-0.01l0,0c18.17-5.52,38.32-8.59,59.54-8.59c21.32,0,41.56,3.11,59.8,8.68l0,0c0,0,0,0,0,0  c2.7,0.82,5.35,1.71,7.96,2.64c0.13,0.05,0.26,0.1,0.4,0.15c7.78,2.8,15.13,6.06,21.99,9.73c0.91-1.49,1.79-3,2.63-4.54  c-15.91-8.55-34.09-14.8-53.67-18.35l41.8,2l-62.6-10.6l49.05-28.47l-57.49,23.23l16.51-31.92l-23.11,29.38l-3.41-64.37l-3.08,64.37  l-22.54-29.37L288.37,418l-57.48-23.28l49.05,28.47l-63,10.31l43.37-1.94c-19.91,3.49-38.4,9.76-54.57,18.4  C206.57,451.5,207.46,453,208.37,454.5z"/>
<g>
	<path class="st3" d="M415.38,473.55c-26.45-24.29-69.08-40.07-117.19-40.07c-48.11,0-90.74,15.78-117.19,40.07   c10.43-3.85,21.72-7.14,33.58-9.92c19.26,25.28,49.59,41.66,83.82,41.66c34.2,0,64.5-16.34,83.75-41.58   C393.88,466.48,405.06,469.74,415.38,473.55z"/>
</g>
<g>
</g>
<g>
</g>
<g>
</g>
<g>
</g>
<g>
</g>
<g>
</g>
</svg>